M48
; DRILL file {KiCad 6.0.11+dfsg-1} date Wed 12 Apr 2023 01:52:05 PM CEST
; FORMAT={-:-/ absolute / inch / decimal}
; #@! TF.CreationDate,2023-04-12T13:52:05+02:00
; #@! TF.GenerationSoftware,Kicad,Pcbnew,6.0.11+dfsg-1
; #@! TF.FileFunction,Plated,1,2,PTH
FMAT,2
INCH
; #@! TA.AperFunction,Plated,PTH,ComponentDrill
T1C0.0315
; #@! TA.AperFunction,Plated,PTH,ComponentDrill
T2C0.0394
; #@! TA.AperFunction,Plated,PTH,ComponentDrill
T3C0.0984
%
G90
G05
T1
X7.9528Y-2.8372
X7.9528Y-2.9372
X7.9528Y-3.0372
X7.9528Y-3.1372
X7.9528Y-3.2372
X7.9528Y-3.3372
X7.9528Y-3.4372
X7.9528Y-3.5372
X7.9528Y-3.6372
X7.9528Y-3.7372
X8.2669Y-2.9378
X8.2669Y-3.0378
X8.2669Y-3.1378
X8.2669Y-3.2378
X8.2669Y-3.3378
X8.2669Y-3.4378
X8.2669Y-3.5378
X8.2669Y-3.6378
X8.5669Y-2.9378
X8.5669Y-3.0378
X8.5669Y-3.1378
X8.5669Y-3.2378
X8.5669Y-3.3378
X8.5669Y-3.4378
X8.5669Y-3.5378
X8.5669Y-3.6378
T2
X8.1053Y-2.8398
X8.1053Y-2.9398
X8.1053Y-3.0398
X8.1053Y-3.1398
X8.1053Y-3.2398
X8.1053Y-3.3398
X8.1053Y-3.4398
X8.1053Y-3.5398
X8.1053Y-3.6398
X8.7717Y-2.937
X8.7717Y-3.037
X8.7717Y-3.137
X8.7717Y-3.237
X8.7717Y-3.337
X8.7717Y-3.437
X8.7717Y-3.537
X8.7717Y-3.637
X8.7717Y-3.737
X8.7717Y-3.837
X8.7717Y-3.937
X8.7717Y-4.037
X8.7717Y-4.137
X8.7717Y-4.237
X8.7717Y-4.337
X8.7717Y-4.437
X8.7717Y-4.537
X8.7717Y-4.637
X8.7717Y-4.737
X8.7717Y-4.837
X8.8717Y-2.937
X8.8717Y-3.037
X8.8717Y-3.137
X8.8717Y-3.237
X8.8717Y-3.337
X8.8717Y-3.437
X8.8717Y-3.537
X8.8717Y-3.637
X8.8717Y-3.737
X8.8717Y-3.837
X8.8717Y-3.937
X8.8717Y-4.037
X8.8717Y-4.137
X8.8717Y-4.237
X8.8717Y-4.337
X8.8717Y-4.437
X8.8717Y-4.537
X8.8717Y-4.637
X8.8717Y-4.737
X8.8717Y-4.837
T3
X8.4252Y-2.6575
X8.7323Y-2.6575
T0
M30
