%TF.GenerationSoftware,KiCad,Pcbnew,6.0.11+dfsg-1*%
%TF.CreationDate,2023-04-12T13:51:57+02:00*%
%TF.ProjectId,power_driver,706f7765-725f-4647-9269-7665722e6b69,rev?*%
%TF.SameCoordinates,Original*%
%TF.FileFunction,Copper,L1,Top*%
%TF.FilePolarity,Positive*%
%FSLAX46Y46*%
G04 Gerber Fmt 4.6, Leading zero omitted, Abs format (unit mm)*
G04 Created by KiCad (PCBNEW 6.0.11+dfsg-1) date 2023-04-12 13:51:57*
%MOMM*%
%LPD*%
G01*
G04 APERTURE LIST*
G04 Aperture macros list*
%AMRoundRect*
0 Rectangle with rounded corners*
0 $1 Rounding radius*
0 $2 $3 $4 $5 $6 $7 $8 $9 X,Y pos of 4 corners*
0 Add a 4 corners polygon primitive as box body*
4,1,4,$2,$3,$4,$5,$6,$7,$8,$9,$2,$3,0*
0 Add four circle primitives for the rounded corners*
1,1,$1+$1,$2,$3*
1,1,$1+$1,$4,$5*
1,1,$1+$1,$6,$7*
1,1,$1+$1,$8,$9*
0 Add four rect primitives between the rounded corners*
20,1,$1+$1,$2,$3,$4,$5,0*
20,1,$1+$1,$4,$5,$6,$7,0*
20,1,$1+$1,$6,$7,$8,$9,0*
20,1,$1+$1,$8,$9,$2,$3,0*%
G04 Aperture macros list end*
%ADD10C,0.300000*%
%TA.AperFunction,NonConductor*%
%ADD11C,0.300000*%
%TD*%
%TA.AperFunction,ComponentPad*%
%ADD12R,1.700000X1.700000*%
%TD*%
%TA.AperFunction,ComponentPad*%
%ADD13O,1.700000X1.700000*%
%TD*%
%TA.AperFunction,ComponentPad*%
%ADD14R,1.600000X1.600000*%
%TD*%
%TA.AperFunction,ComponentPad*%
%ADD15O,1.600000X1.600000*%
%TD*%
%TA.AperFunction,ComponentPad*%
%ADD16RoundRect,0.250002X-1.699998X-1.699998X1.699998X-1.699998X1.699998X1.699998X-1.699998X1.699998X0*%
%TD*%
%TA.AperFunction,Conductor*%
%ADD17C,1.000000*%
%TD*%
%TA.AperFunction,Conductor*%
%ADD18C,0.300000*%
%TD*%
G04 APERTURE END LIST*
D10*
D11*
X202150000Y-121978571D02*
X201650000Y-121264285D01*
X201292857Y-121978571D02*
X201292857Y-120478571D01*
X201864285Y-120478571D01*
X202007142Y-120550000D01*
X202078571Y-120621428D01*
X202150000Y-120764285D01*
X202150000Y-120978571D01*
X202078571Y-121121428D01*
X202007142Y-121192857D01*
X201864285Y-121264285D01*
X201292857Y-121264285D01*
X202792857Y-121978571D02*
X202792857Y-120478571D01*
X203364285Y-120478571D01*
X203507142Y-120550000D01*
X203578571Y-120621428D01*
X203650000Y-120764285D01*
X203650000Y-120978571D01*
X203578571Y-121121428D01*
X203507142Y-121192857D01*
X203364285Y-121264285D01*
X202792857Y-121264285D01*
X204292857Y-121978571D02*
X204292857Y-120978571D01*
X204292857Y-120478571D02*
X204221428Y-120550000D01*
X204292857Y-120621428D01*
X204364285Y-120550000D01*
X204292857Y-120478571D01*
X204292857Y-120621428D01*
X205650000Y-120978571D02*
X205650000Y-121978571D01*
X205292857Y-120407142D02*
X204935714Y-121478571D01*
X205864285Y-121478571D01*
X207507142Y-120621428D02*
X207578571Y-120550000D01*
X207721428Y-120478571D01*
X208078571Y-120478571D01*
X208221428Y-120550000D01*
X208292857Y-120621428D01*
X208364285Y-120764285D01*
X208364285Y-120907142D01*
X208292857Y-121121428D01*
X207435714Y-121978571D01*
X208364285Y-121978571D01*
X209650000Y-120978571D02*
X209650000Y-121978571D01*
X209292857Y-120407142D02*
X208935714Y-121478571D01*
X209864285Y-121478571D01*
X210221428Y-120478571D02*
X210721428Y-121978571D01*
X211221428Y-120478571D01*
X213507142Y-121978571D02*
X213507142Y-120478571D01*
X213507142Y-121907142D02*
X213364285Y-121978571D01*
X213078571Y-121978571D01*
X212935714Y-121907142D01*
X212864285Y-121835714D01*
X212792857Y-121692857D01*
X212792857Y-121264285D01*
X212864285Y-121121428D01*
X212935714Y-121050000D01*
X213078571Y-120978571D01*
X213364285Y-120978571D01*
X213507142Y-121050000D01*
X214221428Y-121978571D02*
X214221428Y-120978571D01*
X214221428Y-121264285D02*
X214292857Y-121121428D01*
X214364285Y-121050000D01*
X214507142Y-120978571D01*
X214650000Y-120978571D01*
X215150000Y-121978571D02*
X215150000Y-120978571D01*
X215150000Y-120478571D02*
X215078571Y-120550000D01*
X215150000Y-120621428D01*
X215221428Y-120550000D01*
X215150000Y-120478571D01*
X215150000Y-120621428D01*
X215721428Y-120978571D02*
X216078571Y-121978571D01*
X216435714Y-120978571D01*
X217578571Y-121907142D02*
X217435714Y-121978571D01*
X217150000Y-121978571D01*
X217007142Y-121907142D01*
X216935714Y-121764285D01*
X216935714Y-121192857D01*
X217007142Y-121050000D01*
X217150000Y-120978571D01*
X217435714Y-120978571D01*
X217578571Y-121050000D01*
X217650000Y-121192857D01*
X217650000Y-121335714D01*
X216935714Y-121478571D01*
X218292857Y-121978571D02*
X218292857Y-120978571D01*
X218292857Y-121264285D02*
X218364285Y-121121428D01*
X218435714Y-121050000D01*
X218578571Y-120978571D01*
X218721428Y-120978571D01*
D12*
%TO.P,J1,1,Pin_1*%
%TO.N,unconnected-(J1-Pad1)*%
X222800000Y-74600000D03*
D13*
%TO.P,J1,2,Pin_2*%
%TO.N,unconnected-(J1-Pad2)*%
X225340000Y-74600000D03*
%TO.P,J1,3,Pin_3*%
%TO.N,unconnected-(J1-Pad3)*%
X222800000Y-77140000D03*
%TO.P,J1,4,Pin_4*%
%TO.N,unconnected-(J1-Pad4)*%
X225340000Y-77140000D03*
%TO.P,J1,5,Pin_5*%
%TO.N,unconnected-(J1-Pad5)*%
X222800000Y-79680000D03*
%TO.P,J1,6,Pin_6*%
%TO.N,GND*%
X225340000Y-79680000D03*
%TO.P,J1,7,Pin_7*%
%TO.N,unconnected-(J1-Pad7)*%
X222800000Y-82220000D03*
%TO.P,J1,8,Pin_8*%
%TO.N,unconnected-(J1-Pad8)*%
X225340000Y-82220000D03*
%TO.P,J1,9,Pin_9*%
%TO.N,GND*%
X222800000Y-84760000D03*
%TO.P,J1,10,Pin_10*%
%TO.N,unconnected-(J1-Pad10)*%
X225340000Y-84760000D03*
%TO.P,J1,11,Pin_11*%
%TO.N,unconnected-(J1-Pad11)*%
X222800000Y-87300000D03*
%TO.P,J1,12,Pin_12*%
%TO.N,12*%
X225340000Y-87300000D03*
%TO.P,J1,13,Pin_13*%
%TO.N,unconnected-(J1-Pad13)*%
X222800000Y-89840000D03*
%TO.P,J1,14,Pin_14*%
%TO.N,unconnected-(J1-Pad14)*%
X225340000Y-89840000D03*
%TO.P,J1,15,Pin_15*%
%TO.N,15*%
X222800000Y-92380000D03*
%TO.P,J1,16,Pin_16*%
%TO.N,16*%
X225340000Y-92380000D03*
%TO.P,J1,17,Pin_17*%
%TO.N,unconnected-(J1-Pad17)*%
X222800000Y-94920000D03*
%TO.P,J1,18,Pin_18*%
%TO.N,unconnected-(J1-Pad18)*%
X225340000Y-94920000D03*
%TO.P,J1,19,Pin_19*%
%TO.N,unconnected-(J1-Pad19)*%
X222800000Y-97460000D03*
%TO.P,J1,20,Pin_20*%
%TO.N,unconnected-(J1-Pad20)*%
X225340000Y-97460000D03*
%TO.P,J1,21,Pin_21*%
%TO.N,unconnected-(J1-Pad21)*%
X222800000Y-100000000D03*
%TO.P,J1,22,Pin_22*%
%TO.N,unconnected-(J1-Pad22)*%
X225340000Y-100000000D03*
%TO.P,J1,23,Pin_23*%
%TO.N,unconnected-(J1-Pad23)*%
X222800000Y-102540000D03*
%TO.P,J1,24,Pin_24*%
%TO.N,unconnected-(J1-Pad24)*%
X225340000Y-102540000D03*
%TO.P,J1,25,Pin_25*%
%TO.N,unconnected-(J1-Pad25)*%
X222800000Y-105080000D03*
%TO.P,J1,26,Pin_26*%
%TO.N,unconnected-(J1-Pad26)*%
X225340000Y-105080000D03*
%TO.P,J1,27,Pin_27*%
%TO.N,unconnected-(J1-Pad27)*%
X222800000Y-107620000D03*
%TO.P,J1,28,Pin_28*%
%TO.N,unconnected-(J1-Pad28)*%
X225340000Y-107620000D03*
%TO.P,J1,29,Pin_29*%
%TO.N,29*%
X222800000Y-110160000D03*
%TO.P,J1,30,Pin_30*%
%TO.N,unconnected-(J1-Pad30)*%
X225340000Y-110160000D03*
%TO.P,J1,31,Pin_31*%
%TO.N,unconnected-(J1-Pad31)*%
X222800000Y-112700000D03*
%TO.P,J1,32,Pin_32*%
%TO.N,unconnected-(J1-Pad32)*%
X225340000Y-112700000D03*
%TO.P,J1,33,Pin_33*%
%TO.N,unconnected-(J1-Pad33)*%
X222800000Y-115240000D03*
%TO.P,J1,34,Pin_34*%
%TO.N,unconnected-(J1-Pad34)*%
X225340000Y-115240000D03*
%TO.P,J1,35,Pin_35*%
%TO.N,35*%
X222800000Y-117780000D03*
%TO.P,J1,36,Pin_36*%
%TO.N,unconnected-(J1-Pad36)*%
X225340000Y-117780000D03*
%TO.P,J1,37,Pin_37*%
%TO.N,37*%
X222800000Y-120320000D03*
%TO.P,J1,38,Pin_38*%
%TO.N,38*%
X225340000Y-120320000D03*
%TO.P,J1,39,Pin_39*%
%TO.N,GND*%
X222800000Y-122860000D03*
%TO.P,J1,40,Pin_40*%
%TO.N,unconnected-(J1-Pad40)*%
X225340000Y-122860000D03*
%TD*%
D14*
%TO.P,U1,1,I1*%
%TO.N,29*%
X217600000Y-92400000D03*
D15*
%TO.P,U1,2,I2*%
%TO.N,16*%
X217600000Y-89860000D03*
%TO.P,U1,3,I3*%
%TO.N,15*%
X217600000Y-87320000D03*
%TO.P,U1,4,I4*%
%TO.N,37*%
X217600000Y-84780000D03*
%TO.P,U1,5,I5*%
%TO.N,38*%
X217600000Y-82240000D03*
%TO.P,U1,6,I6*%
%TO.N,35*%
X217600000Y-79700000D03*
%TO.P,U1,7,I7*%
%TO.N,12*%
X217600000Y-77160000D03*
%TO.P,U1,8,GND*%
%TO.N,GND*%
X217600000Y-74620000D03*
%TO.P,U1,9,COM*%
%TO.N,VCC*%
X209980000Y-74620000D03*
%TO.P,U1,10,O7*%
%TO.N,Net-(J2-Pad7)*%
X209980000Y-77160000D03*
%TO.P,U1,11,O6*%
%TO.N,Net-(J2-Pad6)*%
X209980000Y-79700000D03*
%TO.P,U1,12,O5*%
%TO.N,Net-(J2-Pad5)*%
X209980000Y-82240000D03*
%TO.P,U1,13,O4*%
%TO.N,Net-(J2-Pad4)*%
X209980000Y-84780000D03*
%TO.P,U1,14,O3*%
%TO.N,Net-(J2-Pad3)*%
X209980000Y-87320000D03*
%TO.P,U1,15,O2*%
%TO.N,Net-(J2-Pad2)*%
X209980000Y-89860000D03*
%TO.P,U1,16,O1*%
%TO.N,Net-(J2-Pad1)*%
X209980000Y-92400000D03*
%TD*%
D16*
%TO.P,J4,1,Pin_1*%
%TO.N,GND*%
X221800000Y-67500000D03*
%TD*%
%TO.P,J3,1,Pin_1*%
%TO.N,VCC*%
X214000000Y-67500000D03*
%TD*%
D12*
%TO.P,J2,1,Pin_1*%
%TO.N,Net-(J2-Pad1)*%
X205875000Y-92450000D03*
D13*
%TO.P,J2,2,Pin_2*%
%TO.N,Net-(J2-Pad2)*%
X205875000Y-89910000D03*
%TO.P,J2,3,Pin_3*%
%TO.N,Net-(J2-Pad3)*%
X205875000Y-87370000D03*
%TO.P,J2,4,Pin_4*%
%TO.N,Net-(J2-Pad4)*%
X205875000Y-84830000D03*
%TO.P,J2,5,Pin_5*%
%TO.N,Net-(J2-Pad5)*%
X205875000Y-82290000D03*
%TO.P,J2,6,Pin_6*%
%TO.N,Net-(J2-Pad6)*%
X205875000Y-79750000D03*
%TO.P,J2,7,Pin_7*%
%TO.N,Net-(J2-Pad7)*%
X205875000Y-77210000D03*
%TO.P,J2,8,Pin_8*%
%TO.N,unconnected-(J2-Pad8)*%
X205875000Y-74670000D03*
%TO.P,J2,9,Pin_9*%
%TO.N,unconnected-(J2-Pad9)*%
X205875000Y-72130000D03*
%TD*%
D15*
%TO.P,RN1,10,R9*%
%TO.N,unconnected-(RN1-Pad10)*%
X202000000Y-72065000D03*
%TO.P,RN1,9,R8*%
%TO.N,unconnected-(RN1-Pad9)*%
X202000000Y-74605000D03*
%TO.P,RN1,8,R7*%
%TO.N,Net-(J2-Pad7)*%
X202000000Y-77145000D03*
%TO.P,RN1,7,R6*%
%TO.N,Net-(J2-Pad6)*%
X202000000Y-79685000D03*
%TO.P,RN1,6,R5*%
%TO.N,Net-(J2-Pad5)*%
X202000000Y-82225000D03*
%TO.P,RN1,5,R4*%
%TO.N,Net-(J2-Pad4)*%
X202000000Y-84765000D03*
%TO.P,RN1,4,R3*%
%TO.N,Net-(J2-Pad3)*%
X202000000Y-87305000D03*
%TO.P,RN1,3,R2*%
%TO.N,Net-(J2-Pad2)*%
X202000000Y-89845000D03*
%TO.P,RN1,2,R1*%
%TO.N,Net-(J2-Pad1)*%
X202000000Y-92385000D03*
D14*
%TO.P,RN1,1,common*%
%TO.N,VCC*%
X202000000Y-94925000D03*
%TD*%
D17*
%TO.N,VCC*%
X214000000Y-67500000D02*
X211100000Y-67500000D01*
X211100000Y-67500000D02*
X209980000Y-68620000D01*
X209980000Y-68620000D02*
X209980000Y-74620000D01*
X209980000Y-74620000D02*
X211120000Y-74620000D01*
X211120000Y-74620000D02*
X212300000Y-75800000D01*
X212300000Y-75800000D02*
X212300000Y-93200000D01*
X212300000Y-93200000D02*
X210575000Y-94925000D01*
X202000000Y-94925000D02*
X210575000Y-94925000D01*
D18*
%TO.N,GND*%
X222800000Y-84760000D02*
X224140000Y-83420000D01*
X224140000Y-83420000D02*
X224140000Y-80880000D01*
X224140000Y-80880000D02*
X225340000Y-79680000D01*
%TO.N,29*%
X222800000Y-110160000D02*
X217600000Y-104960000D01*
X217600000Y-104960000D02*
X217600000Y-92400000D01*
%TO.N,38*%
X217600000Y-82240000D02*
X221200000Y-85840000D01*
X221200000Y-85840000D02*
X221200000Y-87397057D01*
X227200000Y-89300000D02*
X227200000Y-118460000D01*
X221200000Y-87397057D02*
X222442943Y-88640000D01*
X222442943Y-88640000D02*
X226540000Y-88640000D01*
X226540000Y-88640000D02*
X227200000Y-89300000D01*
X227200000Y-118460000D02*
X225340000Y-120320000D01*
%TO.N,15*%
X217600000Y-87320000D02*
X222660000Y-92380000D01*
X222660000Y-92380000D02*
X222800000Y-92380000D01*
%TO.N,16*%
X217600000Y-89860000D02*
X221320000Y-93580000D01*
X221320000Y-93580000D02*
X224140000Y-93580000D01*
X224140000Y-93580000D02*
X225340000Y-92380000D01*
%TO.N,37*%
X215500000Y-84960000D02*
X215680000Y-84780000D01*
X215680000Y-84780000D02*
X217600000Y-84780000D01*
X222800000Y-120320000D02*
X224020000Y-119100000D01*
X224020000Y-119100000D02*
X224020000Y-116720000D01*
X224020000Y-116720000D02*
X223740000Y-116440000D01*
X223740000Y-116440000D02*
X221140000Y-116440000D01*
X221140000Y-116440000D02*
X215500000Y-110800000D01*
X215500000Y-110800000D02*
X215500000Y-84960000D01*
%TO.N,35*%
X217600000Y-79700000D02*
X214750000Y-82550000D01*
X214750000Y-82550000D02*
X214750000Y-110950000D01*
X214750000Y-110950000D02*
X221580000Y-117780000D01*
X221580000Y-117780000D02*
X222800000Y-117780000D01*
%TO.N,12*%
X218860000Y-77160000D02*
X221000000Y-79300000D01*
X221000000Y-84657057D02*
X222442943Y-86100000D01*
X217600000Y-77160000D02*
X218860000Y-77160000D01*
X224140000Y-86100000D02*
X225340000Y-87300000D01*
X221000000Y-79300000D02*
X221000000Y-84657057D01*
X222442943Y-86100000D02*
X224140000Y-86100000D01*
D17*
%TO.N,Net-(J2-Pad1)*%
X209980000Y-92400000D02*
X205925000Y-92400000D01*
X205925000Y-92400000D02*
X205875000Y-92450000D01*
X202000000Y-92385000D02*
X205810000Y-92385000D01*
X205810000Y-92385000D02*
X205875000Y-92450000D01*
%TO.N,Net-(J2-Pad2)*%
X202000000Y-89845000D02*
X205810000Y-89845000D01*
X205810000Y-89845000D02*
X205875000Y-89910000D01*
%TO.N,Net-(J2-Pad3)*%
X202000000Y-87305000D02*
X205810000Y-87305000D01*
X205810000Y-87305000D02*
X205875000Y-87370000D01*
%TO.N,Net-(J2-Pad4)*%
X202000000Y-84765000D02*
X205810000Y-84765000D01*
X205810000Y-84765000D02*
X205875000Y-84830000D01*
%TO.N,Net-(J2-Pad5)*%
X202000000Y-82225000D02*
X205810000Y-82225000D01*
X205810000Y-82225000D02*
X205875000Y-82290000D01*
%TO.N,Net-(J2-Pad6)*%
X202000000Y-79685000D02*
X205810000Y-79685000D01*
X205810000Y-79685000D02*
X205875000Y-79750000D01*
%TO.N,Net-(J2-Pad7)*%
X202000000Y-77145000D02*
X205810000Y-77145000D01*
X205810000Y-77145000D02*
X205875000Y-77210000D01*
%TO.N,Net-(J2-Pad2)*%
X209980000Y-89860000D02*
X205925000Y-89860000D01*
X205925000Y-89860000D02*
X205875000Y-89910000D01*
%TO.N,Net-(J2-Pad3)*%
X205875000Y-87370000D02*
X209930000Y-87370000D01*
X209930000Y-87370000D02*
X209980000Y-87320000D01*
%TO.N,Net-(J2-Pad4)*%
X209980000Y-84780000D02*
X205925000Y-84780000D01*
X205925000Y-84780000D02*
X205875000Y-84830000D01*
%TO.N,Net-(J2-Pad5)*%
X205875000Y-82290000D02*
X209930000Y-82290000D01*
X209930000Y-82290000D02*
X209980000Y-82240000D01*
%TO.N,Net-(J2-Pad6)*%
X209980000Y-79700000D02*
X205925000Y-79700000D01*
X205925000Y-79700000D02*
X205875000Y-79750000D01*
%TO.N,Net-(J2-Pad7)*%
X209980000Y-77160000D02*
X205925000Y-77160000D01*
X205925000Y-77160000D02*
X205875000Y-77210000D01*
%TD*%
%TA.AperFunction,Conductor*%
%TO.N,GND*%
G36*
X227942121Y-64020002D02*
G01*
X227988614Y-64073658D01*
X228000000Y-64126000D01*
X228000000Y-88893010D01*
X227979998Y-88961131D01*
X227926342Y-89007624D01*
X227856068Y-89017728D01*
X227791488Y-88988234D01*
X227772064Y-88967071D01*
X227767749Y-88961131D01*
X227754482Y-88942871D01*
X227747967Y-88932952D01*
X227728493Y-88900023D01*
X227728490Y-88900019D01*
X227724453Y-88893193D01*
X227709289Y-88878029D01*
X227696448Y-88862995D01*
X227688501Y-88852057D01*
X227683841Y-88845643D01*
X227648247Y-88816197D01*
X227639468Y-88808208D01*
X227063655Y-88232395D01*
X227055665Y-88223615D01*
X227055663Y-88223613D01*
X227051416Y-88216920D01*
X226999742Y-88168395D01*
X226996901Y-88165641D01*
X226976333Y-88145073D01*
X226972826Y-88142353D01*
X226963804Y-88134647D01*
X226930133Y-88103028D01*
X226923181Y-88099206D01*
X226911342Y-88092697D01*
X226894818Y-88081843D01*
X226884132Y-88073555D01*
X226877868Y-88068696D01*
X226870596Y-88065549D01*
X226870594Y-88065548D01*
X226835465Y-88050346D01*
X226824805Y-88045124D01*
X226791284Y-88026695D01*
X226791282Y-88026694D01*
X226784337Y-88022876D01*
X226763559Y-88017541D01*
X226744869Y-88011142D01*
X226725176Y-88002620D01*
X226693044Y-87997531D01*
X226628891Y-87967119D01*
X226591364Y-87906851D01*
X226592378Y-87835861D01*
X226599798Y-87817254D01*
X226605140Y-87806446D01*
X226605143Y-87806439D01*
X226607430Y-87801811D01*
X226672370Y-87588069D01*
X226701529Y-87366590D01*
X226701611Y-87363240D01*
X226703074Y-87303365D01*
X226703074Y-87303361D01*
X226703156Y-87300000D01*
X226684852Y-87077361D01*
X226630431Y-86860702D01*
X226541354Y-86655840D01*
X226448361Y-86512095D01*
X226422822Y-86472617D01*
X226422820Y-86472614D01*
X226420014Y-86468277D01*
X226269670Y-86303051D01*
X226265619Y-86299852D01*
X226265615Y-86299848D01*
X226098414Y-86167800D01*
X226098410Y-86167798D01*
X226094359Y-86164598D01*
X226053053Y-86141796D01*
X226003084Y-86091364D01*
X225988312Y-86021921D01*
X226013428Y-85955516D01*
X226040780Y-85928909D01*
X226121723Y-85871173D01*
X226219860Y-85801173D01*
X226229735Y-85791333D01*
X226374435Y-85647137D01*
X226378096Y-85643489D01*
X226389085Y-85628197D01*
X226505435Y-85466277D01*
X226508453Y-85462077D01*
X226520106Y-85438500D01*
X226605136Y-85266453D01*
X226605137Y-85266451D01*
X226607430Y-85261811D01*
X226672370Y-85048069D01*
X226701529Y-84826590D01*
X226701611Y-84823240D01*
X226703074Y-84763365D01*
X226703074Y-84763361D01*
X226703156Y-84760000D01*
X226684852Y-84537361D01*
X226630431Y-84320702D01*
X226541354Y-84115840D01*
X226481234Y-84022908D01*
X226422822Y-83932617D01*
X226422820Y-83932614D01*
X226420014Y-83928277D01*
X226269670Y-83763051D01*
X226265619Y-83759852D01*
X226265615Y-83759848D01*
X226098414Y-83627800D01*
X226098410Y-83627798D01*
X226094359Y-83624598D01*
X226053053Y-83601796D01*
X226003084Y-83551364D01*
X225988312Y-83481921D01*
X226013428Y-83415516D01*
X226040780Y-83388909D01*
X226084603Y-83357650D01*
X226219860Y-83261173D01*
X226231718Y-83249357D01*
X226374435Y-83107137D01*
X226378096Y-83103489D01*
X226389085Y-83088197D01*
X226505435Y-82926277D01*
X226508453Y-82922077D01*
X226526157Y-82886257D01*
X226605136Y-82726453D01*
X226605137Y-82726451D01*
X226607430Y-82721811D01*
X226663567Y-82537043D01*
X226670865Y-82513023D01*
X226670865Y-82513021D01*
X226672370Y-82508069D01*
X226701529Y-82286590D01*
X226702052Y-82265195D01*
X226703074Y-82223365D01*
X226703074Y-82223361D01*
X226703156Y-82220000D01*
X226684852Y-81997361D01*
X226630431Y-81780702D01*
X226541354Y-81575840D01*
X226448361Y-81432095D01*
X226422822Y-81392617D01*
X226422820Y-81392614D01*
X226420014Y-81388277D01*
X226269670Y-81223051D01*
X226265619Y-81219852D01*
X226265615Y-81219848D01*
X226098414Y-81087800D01*
X226098410Y-81087798D01*
X226094359Y-81084598D01*
X226052569Y-81061529D01*
X226002598Y-81011097D01*
X225987826Y-80941654D01*
X226012942Y-80875248D01*
X226040294Y-80848641D01*
X226215328Y-80723792D01*
X226223200Y-80717139D01*
X226374052Y-80566812D01*
X226380730Y-80558965D01*
X226505003Y-80386020D01*
X226510313Y-80377183D01*
X226604670Y-80186267D01*
X226608469Y-80176672D01*
X226670377Y-79972910D01*
X226672555Y-79962837D01*
X226673986Y-79951962D01*
X226671775Y-79937778D01*
X226658617Y-79934000D01*
X225212000Y-79934000D01*
X225143879Y-79913998D01*
X225097386Y-79860342D01*
X225086000Y-79808000D01*
X225086000Y-79552000D01*
X225106002Y-79483879D01*
X225159658Y-79437386D01*
X225212000Y-79426000D01*
X226658344Y-79426000D01*
X226671875Y-79422027D01*
X226673180Y-79412947D01*
X226631214Y-79245875D01*
X226627894Y-79236124D01*
X226542972Y-79040814D01*
X226538105Y-79031739D01*
X226422426Y-78852926D01*
X226416136Y-78844757D01*
X226272806Y-78687240D01*
X226265273Y-78680215D01*
X226098139Y-78548222D01*
X226089556Y-78542520D01*
X226052602Y-78522120D01*
X226002631Y-78471687D01*
X225987859Y-78402245D01*
X226012975Y-78335839D01*
X226040327Y-78309232D01*
X226082198Y-78279366D01*
X226219860Y-78181173D01*
X226229735Y-78171333D01*
X226374435Y-78027137D01*
X226378096Y-78023489D01*
X226387808Y-78009974D01*
X226505435Y-77846277D01*
X226508453Y-77842077D01*
X226526157Y-77806257D01*
X226605136Y-77646453D01*
X226605137Y-77646451D01*
X226607430Y-77641811D01*
X226672370Y-77428069D01*
X226701529Y-77206590D01*
X226701611Y-77203240D01*
X226703074Y-77143365D01*
X226703074Y-77143361D01*
X226703156Y-77140000D01*
X226684852Y-76917361D01*
X226630431Y-76700702D01*
X226541354Y-76495840D01*
X226448361Y-76352095D01*
X226422822Y-76312617D01*
X226422820Y-76312614D01*
X226420014Y-76308277D01*
X226269670Y-76143051D01*
X226265619Y-76139852D01*
X226265615Y-76139848D01*
X226098414Y-76007800D01*
X226098410Y-76007798D01*
X226094359Y-76004598D01*
X226053053Y-75981796D01*
X226003084Y-75931364D01*
X225988312Y-75861921D01*
X226013428Y-75795516D01*
X226040780Y-75768909D01*
X226091624Y-75732642D01*
X226219860Y-75641173D01*
X226231718Y-75629357D01*
X226347181Y-75514296D01*
X226378096Y-75483489D01*
X226389085Y-75468197D01*
X226505435Y-75306277D01*
X226508453Y-75302077D01*
X226518867Y-75281007D01*
X226605136Y-75106453D01*
X226605137Y-75106451D01*
X226607430Y-75101811D01*
X226672370Y-74888069D01*
X226701529Y-74666590D01*
X226701611Y-74663240D01*
X226703074Y-74603365D01*
X226703074Y-74603361D01*
X226703156Y-74600000D01*
X226684852Y-74377361D01*
X226630431Y-74160702D01*
X226541354Y-73955840D01*
X226462828Y-73834457D01*
X226422822Y-73772617D01*
X226422820Y-73772614D01*
X226420014Y-73768277D01*
X226269670Y-73603051D01*
X226265619Y-73599852D01*
X226265615Y-73599848D01*
X226098414Y-73467800D01*
X226098410Y-73467798D01*
X226094359Y-73464598D01*
X226066457Y-73449195D01*
X226025594Y-73426638D01*
X225898789Y-73356638D01*
X225893920Y-73354914D01*
X225893916Y-73354912D01*
X225693087Y-73283795D01*
X225693083Y-73283794D01*
X225688212Y-73282069D01*
X225683119Y-73281162D01*
X225683116Y-73281161D01*
X225473373Y-73243800D01*
X225473367Y-73243799D01*
X225468284Y-73242894D01*
X225394452Y-73241992D01*
X225250081Y-73240228D01*
X225250079Y-73240228D01*
X225244911Y-73240165D01*
X225024091Y-73273955D01*
X224811756Y-73343357D01*
X224613607Y-73446507D01*
X224609474Y-73449610D01*
X224609471Y-73449612D01*
X224439100Y-73577530D01*
X224434965Y-73580635D01*
X224361717Y-73657285D01*
X224354283Y-73665064D01*
X224292759Y-73700494D01*
X224221846Y-73697037D01*
X224164060Y-73655791D01*
X224145207Y-73622243D01*
X224103767Y-73511703D01*
X224100615Y-73503295D01*
X224013261Y-73386739D01*
X223896705Y-73299385D01*
X223760316Y-73248255D01*
X223698134Y-73241500D01*
X221901866Y-73241500D01*
X221839684Y-73248255D01*
X221703295Y-73299385D01*
X221586739Y-73386739D01*
X221499385Y-73503295D01*
X221448255Y-73639684D01*
X221441500Y-73701866D01*
X221441500Y-75498134D01*
X221448255Y-75560316D01*
X221499385Y-75696705D01*
X221586739Y-75813261D01*
X221703295Y-75900615D01*
X221711704Y-75903767D01*
X221711705Y-75903768D01*
X221820451Y-75944535D01*
X221877216Y-75987176D01*
X221901916Y-76053738D01*
X221886709Y-76123087D01*
X221867316Y-76149568D01*
X221740629Y-76282138D01*
X221737720Y-76286403D01*
X221737714Y-76286411D01*
X221714657Y-76320211D01*
X221614743Y-76466680D01*
X221569047Y-76565124D01*
X221523914Y-76662356D01*
X221520688Y-76669305D01*
X221460989Y-76884570D01*
X221437251Y-77106695D01*
X221437548Y-77111848D01*
X221437548Y-77111851D01*
X221443011Y-77206590D01*
X221450110Y-77329715D01*
X221451247Y-77334761D01*
X221451248Y-77334767D01*
X221471119Y-77422939D01*
X221499222Y-77547639D01*
X221583266Y-77754616D01*
X221621341Y-77816749D01*
X221697291Y-77940688D01*
X221699987Y-77945088D01*
X221846250Y-78113938D01*
X222018126Y-78256632D01*
X222066414Y-78284849D01*
X222091445Y-78299476D01*
X222140169Y-78351114D01*
X222153240Y-78420897D01*
X222126509Y-78486669D01*
X222086055Y-78520027D01*
X222073607Y-78526507D01*
X222069474Y-78529610D01*
X222069471Y-78529612D01*
X221907451Y-78651260D01*
X221894965Y-78660635D01*
X221740629Y-78822138D01*
X221709826Y-78867294D01*
X221654917Y-78912296D01*
X221584392Y-78920468D01*
X221516644Y-78885384D01*
X221509289Y-78878029D01*
X221496448Y-78862995D01*
X221488501Y-78852057D01*
X221483841Y-78845643D01*
X221448247Y-78816197D01*
X221439468Y-78808208D01*
X219383655Y-76752395D01*
X219375665Y-76743615D01*
X219375663Y-76743613D01*
X219371416Y-76736920D01*
X219319742Y-76688395D01*
X219316901Y-76685641D01*
X219296333Y-76665073D01*
X219292826Y-76662353D01*
X219283804Y-76654647D01*
X219255913Y-76628456D01*
X219250133Y-76623028D01*
X219243181Y-76619206D01*
X219231342Y-76612697D01*
X219214818Y-76601843D01*
X219204132Y-76593555D01*
X219197868Y-76588696D01*
X219190596Y-76585549D01*
X219190594Y-76585548D01*
X219155465Y-76570346D01*
X219144805Y-76565124D01*
X219111284Y-76546695D01*
X219111282Y-76546694D01*
X219104337Y-76542876D01*
X219083559Y-76537541D01*
X219064869Y-76531142D01*
X219045176Y-76522620D01*
X218999552Y-76515394D01*
X218987929Y-76512987D01*
X218959928Y-76505798D01*
X218943188Y-76501500D01*
X218921741Y-76501500D01*
X218902031Y-76499949D01*
X218880848Y-76496594D01*
X218834859Y-76500941D01*
X218823004Y-76501500D01*
X218801888Y-76501500D01*
X218733767Y-76481498D01*
X218698675Y-76447771D01*
X218692967Y-76439618D01*
X218606198Y-76315700D01*
X218444300Y-76153802D01*
X218439792Y-76150645D01*
X218439789Y-76150643D01*
X218342673Y-76082642D01*
X218256749Y-76022477D01*
X218251767Y-76020154D01*
X218251762Y-76020151D01*
X218216951Y-76003919D01*
X218163666Y-75957002D01*
X218144205Y-75888725D01*
X218164747Y-75820765D01*
X218216951Y-75775529D01*
X218251511Y-75759414D01*
X218261007Y-75753931D01*
X218439467Y-75628972D01*
X218447875Y-75621916D01*
X218601916Y-75467875D01*
X218608972Y-75459467D01*
X218733931Y-75281007D01*
X218739414Y-75271511D01*
X218831490Y-75074053D01*
X218835236Y-75063761D01*
X218881394Y-74891497D01*
X218881058Y-74877401D01*
X218873116Y-74874000D01*
X216332033Y-74874000D01*
X216318502Y-74877973D01*
X216317273Y-74886522D01*
X216364764Y-75063761D01*
X216368510Y-75074053D01*
X216460586Y-75271511D01*
X216466069Y-75281007D01*
X216591028Y-75459467D01*
X216598084Y-75467875D01*
X216752125Y-75621916D01*
X216760533Y-75628972D01*
X216938993Y-75753931D01*
X216948489Y-75759414D01*
X216983049Y-75775529D01*
X217036334Y-75822446D01*
X217055795Y-75890723D01*
X217035253Y-75958683D01*
X216983049Y-76003919D01*
X216948238Y-76020151D01*
X216948233Y-76020154D01*
X216943251Y-76022477D01*
X216857327Y-76082642D01*
X216760211Y-76150643D01*
X216760208Y-76150645D01*
X216755700Y-76153802D01*
X216593802Y-76315700D01*
X216462477Y-76503251D01*
X216460154Y-76508233D01*
X216460151Y-76508238D01*
X216372619Y-76695954D01*
X216365716Y-76710757D01*
X216364294Y-76716065D01*
X216364293Y-76716067D01*
X216317766Y-76889707D01*
X216306457Y-76931913D01*
X216286502Y-77160000D01*
X216306457Y-77388087D01*
X216307881Y-77393400D01*
X216307881Y-77393402D01*
X216363032Y-77599225D01*
X216365716Y-77609243D01*
X216368039Y-77614224D01*
X216368039Y-77614225D01*
X216460151Y-77811762D01*
X216460154Y-77811767D01*
X216462477Y-77816749D01*
X216535902Y-77921611D01*
X216586028Y-77993197D01*
X216593802Y-78004300D01*
X216755700Y-78166198D01*
X216760208Y-78169355D01*
X216760211Y-78169357D01*
X216811470Y-78205249D01*
X216943251Y-78297523D01*
X216948233Y-78299846D01*
X216948238Y-78299849D01*
X216982457Y-78315805D01*
X217035742Y-78362722D01*
X217055203Y-78430999D01*
X217034661Y-78498959D01*
X216982457Y-78544195D01*
X216948238Y-78560151D01*
X216948233Y-78560154D01*
X216943251Y-78562477D01*
X216838389Y-78635902D01*
X216760211Y-78690643D01*
X216760208Y-78690645D01*
X216755700Y-78693802D01*
X216593802Y-78855700D01*
X216462477Y-79043251D01*
X216460154Y-79048233D01*
X216460151Y-79048238D01*
X216372539Y-79236124D01*
X216365716Y-79250757D01*
X216364294Y-79256065D01*
X216364293Y-79256067D01*
X216311900Y-79451598D01*
X216306457Y-79471913D01*
X216286502Y-79700000D01*
X216306457Y-79928087D01*
X216307881Y-79933402D01*
X216307882Y-79933405D01*
X216315988Y-79963659D01*
X216314298Y-80034635D01*
X216283376Y-80085364D01*
X214342395Y-82026345D01*
X214333615Y-82034335D01*
X214333613Y-82034337D01*
X214326920Y-82038584D01*
X214321494Y-82044362D01*
X214321493Y-82044363D01*
X214278396Y-82090257D01*
X214275641Y-82093099D01*
X214255073Y-82113667D01*
X214252356Y-82117170D01*
X214244648Y-82126195D01*
X214213028Y-82159867D01*
X214209207Y-82166818D01*
X214209206Y-82166819D01*
X214202697Y-82178658D01*
X214191843Y-82195182D01*
X214184018Y-82205271D01*
X214178696Y-82212132D01*
X214175549Y-82219404D01*
X214175548Y-82219406D01*
X214160346Y-82254535D01*
X214155124Y-82265195D01*
X214141538Y-82289908D01*
X214132876Y-82305663D01*
X214127541Y-82326441D01*
X214121142Y-82345131D01*
X214112620Y-82364824D01*
X214111380Y-82372655D01*
X214105394Y-82410448D01*
X214102987Y-82422071D01*
X214091500Y-82466812D01*
X214091500Y-82488259D01*
X214089949Y-82507969D01*
X214086594Y-82529152D01*
X214089799Y-82563052D01*
X214090941Y-82575138D01*
X214091500Y-82586996D01*
X214091500Y-110867944D01*
X214090941Y-110879800D01*
X214089212Y-110887537D01*
X214089461Y-110895459D01*
X214091438Y-110958369D01*
X214091500Y-110962327D01*
X214091500Y-110991432D01*
X214092056Y-110995832D01*
X214092988Y-111007664D01*
X214094438Y-111053831D01*
X214098008Y-111066117D01*
X214100419Y-111074416D01*
X214104430Y-111093782D01*
X214107118Y-111115064D01*
X214110034Y-111122429D01*
X214110035Y-111122433D01*
X214124126Y-111158021D01*
X214127965Y-111169231D01*
X214140855Y-111213600D01*
X214151775Y-111232065D01*
X214160466Y-111249805D01*
X214168365Y-111269756D01*
X214173361Y-111276632D01*
X214195516Y-111307126D01*
X214202033Y-111317048D01*
X214221507Y-111349977D01*
X214221510Y-111349981D01*
X214225547Y-111356807D01*
X214240711Y-111371971D01*
X214253551Y-111387004D01*
X214266159Y-111404357D01*
X214296158Y-111429174D01*
X214301752Y-111433802D01*
X214310532Y-111441792D01*
X221056345Y-118187605D01*
X221064335Y-118196385D01*
X221068584Y-118203080D01*
X221074362Y-118208506D01*
X221074363Y-118208507D01*
X221120257Y-118251604D01*
X221123099Y-118254359D01*
X221143667Y-118274927D01*
X221147170Y-118277644D01*
X221156195Y-118285352D01*
X221189867Y-118316972D01*
X221196818Y-118320793D01*
X221196819Y-118320794D01*
X221208658Y-118327303D01*
X221225182Y-118338157D01*
X221235271Y-118345982D01*
X221242132Y-118351304D01*
X221249404Y-118354451D01*
X221249406Y-118354452D01*
X221284535Y-118369654D01*
X221295196Y-118374876D01*
X221335663Y-118397124D01*
X221356441Y-118402459D01*
X221375131Y-118408858D01*
X221394824Y-118417380D01*
X221438596Y-118424313D01*
X221440448Y-118424606D01*
X221452071Y-118427013D01*
X221480072Y-118434202D01*
X221496812Y-118438500D01*
X221518259Y-118438500D01*
X221537969Y-118440051D01*
X221559152Y-118443406D01*
X221558699Y-118446267D01*
X221613122Y-118464128D01*
X221649125Y-118502091D01*
X221697285Y-118580680D01*
X221697290Y-118580687D01*
X221699987Y-118585088D01*
X221846250Y-118753938D01*
X222018126Y-118896632D01*
X222055232Y-118918315D01*
X222091445Y-118939476D01*
X222140169Y-118991114D01*
X222153240Y-119060897D01*
X222126509Y-119126669D01*
X222086055Y-119160027D01*
X222073607Y-119166507D01*
X222069474Y-119169610D01*
X222069471Y-119169612D01*
X221899100Y-119297530D01*
X221894965Y-119300635D01*
X221740629Y-119462138D01*
X221614743Y-119646680D01*
X221520688Y-119849305D01*
X221460989Y-120064570D01*
X221437251Y-120286695D01*
X221437548Y-120291848D01*
X221437548Y-120291851D01*
X221443011Y-120386590D01*
X221450110Y-120509715D01*
X221451247Y-120514761D01*
X221451248Y-120514767D01*
X221471119Y-120602939D01*
X221499222Y-120727639D01*
X221583266Y-120934616D01*
X221634019Y-121017438D01*
X221697291Y-121120688D01*
X221699987Y-121125088D01*
X221846250Y-121293938D01*
X222018126Y-121436632D01*
X222091445Y-121479476D01*
X222091955Y-121479774D01*
X222140679Y-121531412D01*
X222153750Y-121601195D01*
X222127019Y-121666967D01*
X222086562Y-121700327D01*
X222078457Y-121704546D01*
X222069738Y-121710036D01*
X221899433Y-121837905D01*
X221891726Y-121844748D01*
X221744590Y-121998717D01*
X221738104Y-122006727D01*
X221618098Y-122182649D01*
X221613000Y-122191623D01*
X221523338Y-122384783D01*
X221519775Y-122394470D01*
X221464389Y-122594183D01*
X221465912Y-122602607D01*
X221478292Y-122606000D01*
X222928000Y-122606000D01*
X222996121Y-122626002D01*
X223042614Y-122679658D01*
X223054000Y-122732000D01*
X223054000Y-124178517D01*
X223058064Y-124192359D01*
X223071478Y-124194393D01*
X223078184Y-124193534D01*
X223088262Y-124191392D01*
X223292255Y-124130191D01*
X223301842Y-124126433D01*
X223493095Y-124032739D01*
X223501945Y-124027464D01*
X223675328Y-123903792D01*
X223683200Y-123897139D01*
X223834052Y-123746812D01*
X223840730Y-123738965D01*
X223968022Y-123561819D01*
X223969279Y-123562722D01*
X224016373Y-123519362D01*
X224086311Y-123507145D01*
X224151751Y-123534678D01*
X224179579Y-123566511D01*
X224239987Y-123665088D01*
X224386250Y-123833938D01*
X224558126Y-123976632D01*
X224751000Y-124089338D01*
X224959692Y-124169030D01*
X224964760Y-124170061D01*
X224964763Y-124170062D01*
X225059862Y-124189410D01*
X225178597Y-124213567D01*
X225183772Y-124213757D01*
X225183774Y-124213757D01*
X225396673Y-124221564D01*
X225396677Y-124221564D01*
X225401837Y-124221753D01*
X225406957Y-124221097D01*
X225406959Y-124221097D01*
X225618288Y-124194025D01*
X225618289Y-124194025D01*
X225623416Y-124193368D01*
X225628366Y-124191883D01*
X225832429Y-124130661D01*
X225832434Y-124130659D01*
X225837384Y-124129174D01*
X226037994Y-124030896D01*
X226219860Y-123901173D01*
X226378096Y-123743489D01*
X226508453Y-123562077D01*
X226521995Y-123534678D01*
X226605136Y-123366453D01*
X226605137Y-123366451D01*
X226607430Y-123361811D01*
X226672370Y-123148069D01*
X226701529Y-122926590D01*
X226703156Y-122860000D01*
X226684852Y-122637361D01*
X226630431Y-122420702D01*
X226541354Y-122215840D01*
X226420014Y-122028277D01*
X226269670Y-121863051D01*
X226265619Y-121859852D01*
X226265615Y-121859848D01*
X226098414Y-121727800D01*
X226098410Y-121727798D01*
X226094359Y-121724598D01*
X226053053Y-121701796D01*
X226003084Y-121651364D01*
X225988312Y-121581921D01*
X226013428Y-121515516D01*
X226040780Y-121488909D01*
X226084603Y-121457650D01*
X226219860Y-121361173D01*
X226378096Y-121203489D01*
X226437594Y-121120689D01*
X226505435Y-121026277D01*
X226508453Y-121022077D01*
X226529320Y-120979857D01*
X226605136Y-120826453D01*
X226605137Y-120826451D01*
X226607430Y-120821811D01*
X226672370Y-120608069D01*
X226701529Y-120386590D01*
X226703156Y-120320000D01*
X226684852Y-120097361D01*
X226663919Y-120014022D01*
X226666723Y-119943081D01*
X226697028Y-119894232D01*
X227607605Y-118983655D01*
X227616385Y-118975665D01*
X227616387Y-118975663D01*
X227623080Y-118971416D01*
X227671605Y-118919742D01*
X227674359Y-118916901D01*
X227694927Y-118896333D01*
X227697647Y-118892826D01*
X227705353Y-118883804D01*
X227731546Y-118855911D01*
X227736972Y-118850133D01*
X227740790Y-118843188D01*
X227740793Y-118843184D01*
X227747300Y-118831347D01*
X227758157Y-118814818D01*
X227771306Y-118797867D01*
X227772716Y-118798960D01*
X227817436Y-118757202D01*
X227887287Y-118744494D01*
X227952918Y-118771568D01*
X227993494Y-118829827D01*
X228000000Y-118869792D01*
X228000000Y-125874000D01*
X227979998Y-125942121D01*
X227926342Y-125988614D01*
X227874000Y-126000000D01*
X198826000Y-126000000D01*
X198757879Y-125979998D01*
X198711386Y-125926342D01*
X198700000Y-125874000D01*
X198700000Y-123241000D01*
X200277215Y-123241000D01*
X219522786Y-123241000D01*
X219522786Y-123127966D01*
X221468257Y-123127966D01*
X221498565Y-123262446D01*
X221501645Y-123272275D01*
X221581770Y-123469603D01*
X221586413Y-123478794D01*
X221697694Y-123660388D01*
X221703777Y-123668699D01*
X221843213Y-123829667D01*
X221850580Y-123836883D01*
X222014434Y-123972916D01*
X222022881Y-123978831D01*
X222206756Y-124086279D01*
X222216042Y-124090729D01*
X222415001Y-124166703D01*
X222424899Y-124169579D01*
X222528250Y-124190606D01*
X222542299Y-124189410D01*
X222546000Y-124179065D01*
X222546000Y-123132115D01*
X222541525Y-123116876D01*
X222540135Y-123115671D01*
X222532452Y-123114000D01*
X221483225Y-123114000D01*
X221469694Y-123117973D01*
X221468257Y-123127966D01*
X219522786Y-123127966D01*
X219522786Y-119359000D01*
X200277215Y-119359000D01*
X200277215Y-123241000D01*
X198700000Y-123241000D01*
X198700000Y-92385000D01*
X200686502Y-92385000D01*
X200706457Y-92613087D01*
X200765716Y-92834243D01*
X200768039Y-92839224D01*
X200768039Y-92839225D01*
X200860151Y-93036762D01*
X200860154Y-93036767D01*
X200862477Y-93041749D01*
X200993802Y-93229300D01*
X201155700Y-93391198D01*
X201160211Y-93394357D01*
X201164424Y-93397892D01*
X201163473Y-93399026D01*
X201203471Y-93449071D01*
X201210776Y-93519690D01*
X201178742Y-93583049D01*
X201117538Y-93619030D01*
X201100483Y-93622082D01*
X201089684Y-93623255D01*
X200953295Y-93674385D01*
X200836739Y-93761739D01*
X200749385Y-93878295D01*
X200698255Y-94014684D01*
X200691500Y-94076866D01*
X200691500Y-95773134D01*
X200698255Y-95835316D01*
X200749385Y-95971705D01*
X200836739Y-96088261D01*
X200953295Y-96175615D01*
X201089684Y-96226745D01*
X201151866Y-96233500D01*
X202848134Y-96233500D01*
X202910316Y-96226745D01*
X203046705Y-96175615D01*
X203163261Y-96088261D01*
X203241449Y-95983935D01*
X203298308Y-95941420D01*
X203342275Y-95933500D01*
X210513157Y-95933500D01*
X210526764Y-95934237D01*
X210558262Y-95937659D01*
X210558267Y-95937659D01*
X210564388Y-95938324D01*
X210590638Y-95936027D01*
X210614388Y-95933950D01*
X210619214Y-95933621D01*
X210621686Y-95933500D01*
X210624769Y-95933500D01*
X210636738Y-95932326D01*
X210667506Y-95929310D01*
X210668819Y-95929188D01*
X210713084Y-95925315D01*
X210761413Y-95921087D01*
X210766532Y-95919600D01*
X210771833Y-95919080D01*
X210860834Y-95892209D01*
X210861967Y-95891874D01*
X210945414Y-95867630D01*
X210945418Y-95867628D01*
X210951336Y-95865909D01*
X210956068Y-95863456D01*
X210961169Y-95861916D01*
X211011198Y-95835316D01*
X211043260Y-95818269D01*
X211044426Y-95817657D01*
X211121453Y-95777729D01*
X211126926Y-95774892D01*
X211131089Y-95771569D01*
X211135796Y-95769066D01*
X211207918Y-95710245D01*
X211208774Y-95709554D01*
X211247973Y-95678262D01*
X211250477Y-95675758D01*
X211251195Y-95675116D01*
X211255528Y-95671415D01*
X211289062Y-95644065D01*
X211303185Y-95626994D01*
X211318287Y-95608738D01*
X211326277Y-95599958D01*
X212969379Y-93956855D01*
X212979522Y-93947753D01*
X213004218Y-93927897D01*
X213009025Y-93924032D01*
X213041320Y-93885544D01*
X213044478Y-93881925D01*
X213046124Y-93880110D01*
X213048309Y-93877925D01*
X213050264Y-93875545D01*
X213050273Y-93875535D01*
X213075549Y-93844764D01*
X213076391Y-93843749D01*
X213111636Y-93801745D01*
X213136154Y-93772526D01*
X213138723Y-93767852D01*
X213142102Y-93763739D01*
X213185975Y-93681915D01*
X213186584Y-93680793D01*
X213228464Y-93604614D01*
X213228465Y-93604612D01*
X213231433Y-93599213D01*
X213233045Y-93594131D01*
X213235562Y-93589437D01*
X213262762Y-93500469D01*
X213263108Y-93499358D01*
X213270750Y-93475270D01*
X213291235Y-93410694D01*
X213291829Y-93405398D01*
X213293387Y-93400302D01*
X213302790Y-93307743D01*
X213302911Y-93306607D01*
X213308500Y-93256773D01*
X213308500Y-93253246D01*
X213308555Y-93252261D01*
X213309002Y-93246581D01*
X213313374Y-93203538D01*
X213309059Y-93157891D01*
X213308500Y-93146033D01*
X213308500Y-75861843D01*
X213309237Y-75848236D01*
X213312659Y-75816738D01*
X213312659Y-75816733D01*
X213313324Y-75810612D01*
X213310255Y-75775529D01*
X213308950Y-75760612D01*
X213308621Y-75755786D01*
X213308500Y-75753314D01*
X213308500Y-75750231D01*
X213306775Y-75732642D01*
X213304310Y-75707494D01*
X213304188Y-75706181D01*
X213299031Y-75647240D01*
X213296087Y-75613587D01*
X213294600Y-75608468D01*
X213294080Y-75603167D01*
X213267209Y-75514166D01*
X213266874Y-75513033D01*
X213242630Y-75429586D01*
X213242628Y-75429582D01*
X213240909Y-75423664D01*
X213238456Y-75418932D01*
X213236916Y-75413831D01*
X213193269Y-75331740D01*
X213192657Y-75330574D01*
X213152729Y-75253547D01*
X213149892Y-75248074D01*
X213146569Y-75243911D01*
X213144066Y-75239204D01*
X213085245Y-75167082D01*
X213084554Y-75166226D01*
X213053262Y-75127027D01*
X213050758Y-75124523D01*
X213050116Y-75123805D01*
X213046415Y-75119472D01*
X213019065Y-75085938D01*
X213009034Y-75077639D01*
X212983738Y-75056713D01*
X212974958Y-75048723D01*
X212274737Y-74348503D01*
X216318606Y-74348503D01*
X216318942Y-74362599D01*
X216326884Y-74366000D01*
X217327885Y-74366000D01*
X217343124Y-74361525D01*
X217344329Y-74360135D01*
X217346000Y-74352452D01*
X217346000Y-74347885D01*
X217854000Y-74347885D01*
X217858475Y-74363124D01*
X217859865Y-74364329D01*
X217867548Y-74366000D01*
X218867967Y-74366000D01*
X218881498Y-74362027D01*
X218882727Y-74353478D01*
X218835236Y-74176239D01*
X218831490Y-74165947D01*
X218739414Y-73968489D01*
X218733931Y-73958993D01*
X218608972Y-73780533D01*
X218601916Y-73772125D01*
X218447875Y-73618084D01*
X218439467Y-73611028D01*
X218261007Y-73486069D01*
X218251511Y-73480586D01*
X218054053Y-73388510D01*
X218043761Y-73384764D01*
X217871497Y-73338606D01*
X217857401Y-73338942D01*
X217854000Y-73346884D01*
X217854000Y-74347885D01*
X217346000Y-74347885D01*
X217346000Y-73352033D01*
X217342027Y-73338502D01*
X217333478Y-73337273D01*
X217156239Y-73384764D01*
X217145947Y-73388510D01*
X216948489Y-73480586D01*
X216938993Y-73486069D01*
X216760533Y-73611028D01*
X216752125Y-73618084D01*
X216598084Y-73772125D01*
X216591028Y-73780533D01*
X216466069Y-73958993D01*
X216460586Y-73968489D01*
X216368510Y-74165947D01*
X216364764Y-74176239D01*
X216318606Y-74348503D01*
X212274737Y-74348503D01*
X211876855Y-73950621D01*
X211867753Y-73940478D01*
X211847897Y-73915782D01*
X211844032Y-73910975D01*
X211805578Y-73878708D01*
X211801931Y-73875528D01*
X211800119Y-73873885D01*
X211797925Y-73871691D01*
X211764651Y-73844358D01*
X211763853Y-73843696D01*
X211692526Y-73783846D01*
X211687856Y-73781278D01*
X211683739Y-73777897D01*
X211601914Y-73734023D01*
X211600755Y-73733394D01*
X211524619Y-73691538D01*
X211524611Y-73691535D01*
X211519213Y-73688567D01*
X211514131Y-73686955D01*
X211509437Y-73684438D01*
X211420469Y-73657238D01*
X211419441Y-73656918D01*
X211330694Y-73628765D01*
X211325398Y-73628171D01*
X211320302Y-73626613D01*
X211227743Y-73617210D01*
X211226607Y-73617089D01*
X211192992Y-73613319D01*
X211180270Y-73611892D01*
X211180266Y-73611892D01*
X211176773Y-73611500D01*
X211173246Y-73611500D01*
X211172261Y-73611445D01*
X211166581Y-73610998D01*
X211137175Y-73608011D01*
X211129663Y-73607248D01*
X211129661Y-73607248D01*
X211123538Y-73606626D01*
X211117407Y-73607206D01*
X211114060Y-73607194D01*
X211046010Y-73586954D01*
X210999704Y-73533137D01*
X210988500Y-73481195D01*
X210988500Y-69089926D01*
X211008502Y-69021805D01*
X211025404Y-69000831D01*
X211326406Y-68699829D01*
X211388718Y-68665804D01*
X211459533Y-68670868D01*
X211516369Y-68713415D01*
X211541180Y-68779935D01*
X211541501Y-68788924D01*
X211541501Y-69250398D01*
X211552474Y-69356165D01*
X211608450Y-69523945D01*
X211701522Y-69674347D01*
X211826698Y-69799305D01*
X211977263Y-69892114D01*
X212145140Y-69947797D01*
X212151973Y-69948497D01*
X212151977Y-69948498D01*
X212201045Y-69953525D01*
X212249601Y-69958500D01*
X213986502Y-69958500D01*
X215750398Y-69958499D01*
X215856165Y-69947526D01*
X215862698Y-69945346D01*
X215862700Y-69945346D01*
X215994739Y-69901294D01*
X216023945Y-69891550D01*
X216174347Y-69798478D01*
X216299305Y-69673302D01*
X216392114Y-69522737D01*
X216447797Y-69354860D01*
X216458500Y-69250399D01*
X216458500Y-69247093D01*
X219342001Y-69247093D01*
X219342338Y-69253612D01*
X219352257Y-69349205D01*
X219355149Y-69362599D01*
X219406588Y-69516783D01*
X219412761Y-69529961D01*
X219498063Y-69667806D01*
X219507099Y-69679207D01*
X219621830Y-69793739D01*
X219633241Y-69802751D01*
X219771244Y-69887816D01*
X219784425Y-69893963D01*
X219938711Y-69945138D01*
X219952087Y-69948005D01*
X220046440Y-69957672D01*
X220052856Y-69958000D01*
X221527885Y-69958000D01*
X221543124Y-69953525D01*
X221544329Y-69952135D01*
X221546000Y-69944452D01*
X221546000Y-69939884D01*
X222054000Y-69939884D01*
X222058475Y-69955123D01*
X222059865Y-69956328D01*
X222067548Y-69957999D01*
X223547093Y-69957999D01*
X223553612Y-69957662D01*
X223649205Y-69947743D01*
X223662599Y-69944851D01*
X223816783Y-69893412D01*
X223829961Y-69887239D01*
X223967806Y-69801937D01*
X223979207Y-69792901D01*
X224093739Y-69678170D01*
X224102751Y-69666759D01*
X224187816Y-69528756D01*
X224193963Y-69515575D01*
X224245138Y-69361289D01*
X224248005Y-69347913D01*
X224257672Y-69253560D01*
X224258000Y-69247144D01*
X224258000Y-67772115D01*
X224253525Y-67756876D01*
X224252135Y-67755671D01*
X224244452Y-67754000D01*
X222072115Y-67754000D01*
X222056876Y-67758475D01*
X222055671Y-67759865D01*
X222054000Y-67767548D01*
X222054000Y-69939884D01*
X221546000Y-69939884D01*
X221546000Y-67772115D01*
X221541525Y-67756876D01*
X221540135Y-67755671D01*
X221532452Y-67754000D01*
X219360116Y-67754000D01*
X219344877Y-67758475D01*
X219343672Y-67759865D01*
X219342001Y-67767548D01*
X219342001Y-69247093D01*
X216458500Y-69247093D01*
X216458499Y-67227885D01*
X219342000Y-67227885D01*
X219346475Y-67243124D01*
X219347865Y-67244329D01*
X219355548Y-67246000D01*
X221527885Y-67246000D01*
X221543124Y-67241525D01*
X221544329Y-67240135D01*
X221546000Y-67232452D01*
X221546000Y-67227885D01*
X222054000Y-67227885D01*
X222058475Y-67243124D01*
X222059865Y-67244329D01*
X222067548Y-67246000D01*
X224239884Y-67246000D01*
X224255123Y-67241525D01*
X224256328Y-67240135D01*
X224257999Y-67232452D01*
X224257999Y-65752907D01*
X224257662Y-65746388D01*
X224247743Y-65650795D01*
X224244851Y-65637401D01*
X224193412Y-65483217D01*
X224187239Y-65470039D01*
X224101937Y-65332194D01*
X224092901Y-65320793D01*
X223978170Y-65206261D01*
X223966759Y-65197249D01*
X223828756Y-65112184D01*
X223815575Y-65106037D01*
X223661289Y-65054862D01*
X223647913Y-65051995D01*
X223553560Y-65042328D01*
X223547143Y-65042000D01*
X222072115Y-65042000D01*
X222056876Y-65046475D01*
X222055671Y-65047865D01*
X222054000Y-65055548D01*
X222054000Y-67227885D01*
X221546000Y-67227885D01*
X221546000Y-65060116D01*
X221541525Y-65044877D01*
X221540135Y-65043672D01*
X221532452Y-65042001D01*
X220052907Y-65042001D01*
X220046388Y-65042338D01*
X219950795Y-65052257D01*
X219937401Y-65055149D01*
X219783217Y-65106588D01*
X219770039Y-65112761D01*
X219632194Y-65198063D01*
X219620793Y-65207099D01*
X219506261Y-65321830D01*
X219497249Y-65333241D01*
X219412184Y-65471244D01*
X219406037Y-65484425D01*
X219354862Y-65638711D01*
X219351995Y-65652087D01*
X219342328Y-65746440D01*
X219342000Y-65752857D01*
X219342000Y-67227885D01*
X216458499Y-67227885D01*
X216458499Y-65749602D01*
X216447526Y-65643835D01*
X216391550Y-65476055D01*
X216298478Y-65325653D01*
X216173302Y-65200695D01*
X216022737Y-65107886D01*
X215854860Y-65052203D01*
X215848027Y-65051503D01*
X215848023Y-65051502D01*
X215783358Y-65044877D01*
X215750399Y-65041500D01*
X214013498Y-65041500D01*
X212249602Y-65041501D01*
X212143835Y-65052474D01*
X212137302Y-65054654D01*
X212137300Y-65054654D01*
X212120929Y-65060116D01*
X211976055Y-65108450D01*
X211825653Y-65201522D01*
X211700695Y-65326698D01*
X211607886Y-65477263D01*
X211552203Y-65645140D01*
X211541500Y-65749601D01*
X211541500Y-66365500D01*
X211521498Y-66433621D01*
X211467842Y-66480114D01*
X211415500Y-66491500D01*
X211161842Y-66491500D01*
X211148235Y-66490763D01*
X211116737Y-66487341D01*
X211116732Y-66487341D01*
X211110611Y-66486676D01*
X211092611Y-66488251D01*
X211060609Y-66491050D01*
X211055784Y-66491379D01*
X211053313Y-66491500D01*
X211050231Y-66491500D01*
X211027763Y-66493703D01*
X211007489Y-66495691D01*
X211006174Y-66495813D01*
X210973913Y-66498636D01*
X210913587Y-66503913D01*
X210908468Y-66505400D01*
X210903167Y-66505920D01*
X210814194Y-66532782D01*
X210813054Y-66533120D01*
X210723663Y-66559091D01*
X210718929Y-66561545D01*
X210713831Y-66563084D01*
X210708387Y-66565978D01*
X210708386Y-66565979D01*
X210631831Y-66606684D01*
X210630663Y-66607298D01*
X210548074Y-66650108D01*
X210543911Y-66653431D01*
X210539204Y-66655934D01*
X210467082Y-66714755D01*
X210466226Y-66715446D01*
X210427027Y-66746738D01*
X210424523Y-66749242D01*
X210423805Y-66749884D01*
X210419472Y-66753585D01*
X210385938Y-66780935D01*
X210382011Y-66785682D01*
X210382009Y-66785684D01*
X210356713Y-66816262D01*
X210348723Y-66825042D01*
X209310621Y-67863145D01*
X209300478Y-67872247D01*
X209270975Y-67895968D01*
X209267008Y-67900696D01*
X209238709Y-67934421D01*
X209235528Y-67938069D01*
X209233885Y-67939881D01*
X209231691Y-67942075D01*
X209204358Y-67975349D01*
X209203696Y-67976147D01*
X209143846Y-68047474D01*
X209141278Y-68052144D01*
X209137897Y-68056261D01*
X209106860Y-68114145D01*
X209094023Y-68138086D01*
X209093394Y-68139245D01*
X209051538Y-68215381D01*
X209051535Y-68215389D01*
X209048567Y-68220787D01*
X209046955Y-68225869D01*
X209044438Y-68230563D01*
X209017238Y-68319531D01*
X209016918Y-68320559D01*
X208988765Y-68409306D01*
X208988171Y-68414602D01*
X208986613Y-68419698D01*
X208977593Y-68508500D01*
X208977218Y-68512187D01*
X208977089Y-68513393D01*
X208971500Y-68563227D01*
X208971500Y-68566754D01*
X208971445Y-68567739D01*
X208970998Y-68573419D01*
X208966626Y-68616462D01*
X208967206Y-68622593D01*
X208970941Y-68662109D01*
X208971500Y-68673967D01*
X208971500Y-73739260D01*
X208948713Y-73811531D01*
X208842477Y-73963251D01*
X208840154Y-73968233D01*
X208840151Y-73968238D01*
X208752619Y-74155954D01*
X208745716Y-74170757D01*
X208744294Y-74176065D01*
X208744293Y-74176067D01*
X208696756Y-74353478D01*
X208686457Y-74391913D01*
X208666502Y-74620000D01*
X208686457Y-74848087D01*
X208687881Y-74853400D01*
X208687881Y-74853402D01*
X208743032Y-75059225D01*
X208745716Y-75069243D01*
X208748039Y-75074224D01*
X208748039Y-75074225D01*
X208840151Y-75271762D01*
X208840154Y-75271767D01*
X208842477Y-75276749D01*
X208856964Y-75297438D01*
X208966028Y-75453197D01*
X208973802Y-75464300D01*
X209135700Y-75626198D01*
X209140208Y-75629355D01*
X209140211Y-75629357D01*
X209218389Y-75684098D01*
X209323251Y-75757523D01*
X209328233Y-75759846D01*
X209328238Y-75759849D01*
X209362457Y-75775805D01*
X209415742Y-75822722D01*
X209435203Y-75890999D01*
X209414661Y-75958959D01*
X209362457Y-76004195D01*
X209328238Y-76020151D01*
X209328233Y-76020154D01*
X209323251Y-76022477D01*
X209270217Y-76059612D01*
X209171531Y-76128713D01*
X209099260Y-76151500D01*
X206770489Y-76151500D01*
X206702368Y-76131498D01*
X206692396Y-76124382D01*
X206633415Y-76077801D01*
X206633413Y-76077800D01*
X206629359Y-76074598D01*
X206588053Y-76051796D01*
X206538084Y-76001364D01*
X206523312Y-75931921D01*
X206548428Y-75865516D01*
X206575780Y-75838909D01*
X206636615Y-75795516D01*
X206754860Y-75711173D01*
X206759870Y-75706181D01*
X206857215Y-75609175D01*
X206913096Y-75553489D01*
X206942167Y-75513033D01*
X207040435Y-75376277D01*
X207043453Y-75372077D01*
X207088463Y-75281007D01*
X207140136Y-75176453D01*
X207140137Y-75176451D01*
X207142430Y-75171811D01*
X207207370Y-74958069D01*
X207236529Y-74736590D01*
X207238156Y-74670000D01*
X207219852Y-74447361D01*
X207165431Y-74230702D01*
X207076354Y-74025840D01*
X207005154Y-73915782D01*
X206957822Y-73842617D01*
X206957820Y-73842614D01*
X206955014Y-73838277D01*
X206804670Y-73673051D01*
X206800619Y-73669852D01*
X206800615Y-73669848D01*
X206633414Y-73537800D01*
X206633410Y-73537798D01*
X206629359Y-73534598D01*
X206588053Y-73511796D01*
X206538084Y-73461364D01*
X206523312Y-73391921D01*
X206548428Y-73325516D01*
X206575780Y-73298909D01*
X206642905Y-73251029D01*
X206754860Y-73171173D01*
X206913096Y-73013489D01*
X206972594Y-72930689D01*
X207040435Y-72836277D01*
X207043453Y-72832077D01*
X207142430Y-72631811D01*
X207207370Y-72418069D01*
X207236529Y-72196590D01*
X207238156Y-72130000D01*
X207219852Y-71907361D01*
X207165431Y-71690702D01*
X207076354Y-71485840D01*
X206955014Y-71298277D01*
X206804670Y-71133051D01*
X206800619Y-71129852D01*
X206800615Y-71129848D01*
X206633414Y-70997800D01*
X206633410Y-70997798D01*
X206629359Y-70994598D01*
X206433789Y-70886638D01*
X206428920Y-70884914D01*
X206428916Y-70884912D01*
X206228087Y-70813795D01*
X206228083Y-70813794D01*
X206223212Y-70812069D01*
X206218119Y-70811162D01*
X206218116Y-70811161D01*
X206008373Y-70773800D01*
X206008367Y-70773799D01*
X206003284Y-70772894D01*
X205929452Y-70771992D01*
X205785081Y-70770228D01*
X205785079Y-70770228D01*
X205779911Y-70770165D01*
X205559091Y-70803955D01*
X205346756Y-70873357D01*
X205148607Y-70976507D01*
X205144474Y-70979610D01*
X205144471Y-70979612D01*
X204974100Y-71107530D01*
X204969965Y-71110635D01*
X204966393Y-71114373D01*
X204860474Y-71225211D01*
X204815629Y-71272138D01*
X204689743Y-71456680D01*
X204595688Y-71659305D01*
X204535989Y-71874570D01*
X204512251Y-72096695D01*
X204512548Y-72101848D01*
X204512548Y-72101851D01*
X204518011Y-72196590D01*
X204525110Y-72319715D01*
X204526247Y-72324761D01*
X204526248Y-72324767D01*
X204546119Y-72412939D01*
X204574222Y-72537639D01*
X204658266Y-72744616D01*
X204774987Y-72935088D01*
X204921250Y-73103938D01*
X205042798Y-73204849D01*
X205088624Y-73242894D01*
X205093126Y-73246632D01*
X205138546Y-73273173D01*
X205166445Y-73289476D01*
X205215169Y-73341114D01*
X205228240Y-73410897D01*
X205201509Y-73476669D01*
X205161055Y-73510027D01*
X205148607Y-73516507D01*
X205144474Y-73519610D01*
X205144471Y-73519612D01*
X204984550Y-73639684D01*
X204969965Y-73650635D01*
X204917742Y-73705283D01*
X204845120Y-73781278D01*
X204815629Y-73812138D01*
X204812715Y-73816410D01*
X204812714Y-73816411D01*
X204793870Y-73844035D01*
X204689743Y-73996680D01*
X204674003Y-74030590D01*
X204606475Y-74176067D01*
X204595688Y-74199305D01*
X204535989Y-74414570D01*
X204512251Y-74636695D01*
X204512548Y-74641848D01*
X204512548Y-74641851D01*
X204518011Y-74736590D01*
X204525110Y-74859715D01*
X204526247Y-74864761D01*
X204526248Y-74864767D01*
X204531151Y-74886522D01*
X204574222Y-75077639D01*
X204610567Y-75167146D01*
X204655072Y-75276749D01*
X204658266Y-75284616D01*
X204668966Y-75302077D01*
X204743527Y-75423749D01*
X204774987Y-75475088D01*
X204921250Y-75643938D01*
X205042798Y-75744849D01*
X205071779Y-75768909D01*
X205093126Y-75786632D01*
X205147905Y-75818642D01*
X205166445Y-75829476D01*
X205215169Y-75881114D01*
X205228240Y-75950897D01*
X205201509Y-76016669D01*
X205161055Y-76050027D01*
X205148607Y-76056507D01*
X205144474Y-76059610D01*
X205144471Y-76059612D01*
X205075683Y-76111260D01*
X205009198Y-76136166D01*
X205000030Y-76136500D01*
X202880740Y-76136500D01*
X202808469Y-76113713D01*
X202764095Y-76082642D01*
X202656749Y-76007477D01*
X202651767Y-76005154D01*
X202651762Y-76005151D01*
X202617543Y-75989195D01*
X202564258Y-75942278D01*
X202544797Y-75874001D01*
X202565339Y-75806041D01*
X202617543Y-75760805D01*
X202651762Y-75744849D01*
X202651767Y-75744846D01*
X202656749Y-75742523D01*
X202797543Y-75643938D01*
X202839789Y-75614357D01*
X202839792Y-75614355D01*
X202844300Y-75611198D01*
X203006198Y-75449300D01*
X203027020Y-75419564D01*
X203064098Y-75366611D01*
X203137523Y-75261749D01*
X203139846Y-75256767D01*
X203139849Y-75256762D01*
X203231961Y-75059225D01*
X203231961Y-75059224D01*
X203234284Y-75054243D01*
X203293543Y-74833087D01*
X203313498Y-74605000D01*
X203293543Y-74376913D01*
X203254366Y-74230702D01*
X203235707Y-74161067D01*
X203235706Y-74161065D01*
X203234284Y-74155757D01*
X203160106Y-73996680D01*
X203139849Y-73953238D01*
X203139846Y-73953233D01*
X203137523Y-73948251D01*
X203045207Y-73816411D01*
X203009357Y-73765211D01*
X203009355Y-73765208D01*
X203006198Y-73760700D01*
X202844300Y-73598802D01*
X202839792Y-73595645D01*
X202839789Y-73595643D01*
X202719910Y-73511703D01*
X202656749Y-73467477D01*
X202651767Y-73465154D01*
X202651762Y-73465151D01*
X202617543Y-73449195D01*
X202564258Y-73402278D01*
X202544797Y-73334001D01*
X202565339Y-73266041D01*
X202617543Y-73220805D01*
X202651762Y-73204849D01*
X202651767Y-73204846D01*
X202656749Y-73202523D01*
X202797543Y-73103938D01*
X202839789Y-73074357D01*
X202839792Y-73074355D01*
X202844300Y-73071198D01*
X203006198Y-72909300D01*
X203137523Y-72721749D01*
X203139846Y-72716767D01*
X203139849Y-72716762D01*
X203231961Y-72519225D01*
X203231961Y-72519224D01*
X203234284Y-72514243D01*
X203293543Y-72293087D01*
X203313498Y-72065000D01*
X203293543Y-71836913D01*
X203254366Y-71690702D01*
X203235707Y-71621067D01*
X203235706Y-71621065D01*
X203234284Y-71615757D01*
X203160106Y-71456680D01*
X203139849Y-71413238D01*
X203139846Y-71413233D01*
X203137523Y-71408251D01*
X203045207Y-71276411D01*
X203009357Y-71225211D01*
X203009355Y-71225208D01*
X203006198Y-71220700D01*
X202844300Y-71058802D01*
X202839792Y-71055645D01*
X202839789Y-71055643D01*
X202723359Y-70974118D01*
X202656749Y-70927477D01*
X202651767Y-70925154D01*
X202651762Y-70925151D01*
X202454225Y-70833039D01*
X202454224Y-70833039D01*
X202449243Y-70830716D01*
X202443935Y-70829294D01*
X202443933Y-70829293D01*
X202233402Y-70772881D01*
X202233400Y-70772881D01*
X202228087Y-70771457D01*
X202000000Y-70751502D01*
X201771913Y-70771457D01*
X201766600Y-70772881D01*
X201766598Y-70772881D01*
X201556067Y-70829293D01*
X201556065Y-70829294D01*
X201550757Y-70830716D01*
X201545776Y-70833039D01*
X201545775Y-70833039D01*
X201348238Y-70925151D01*
X201348233Y-70925154D01*
X201343251Y-70927477D01*
X201276641Y-70974118D01*
X201160211Y-71055643D01*
X201160208Y-71055645D01*
X201155700Y-71058802D01*
X200993802Y-71220700D01*
X200990645Y-71225208D01*
X200990643Y-71225211D01*
X200954793Y-71276411D01*
X200862477Y-71408251D01*
X200860154Y-71413233D01*
X200860151Y-71413238D01*
X200839894Y-71456680D01*
X200765716Y-71615757D01*
X200764294Y-71621065D01*
X200764293Y-71621067D01*
X200745634Y-71690702D01*
X200706457Y-71836913D01*
X200686502Y-72065000D01*
X200706457Y-72293087D01*
X200765716Y-72514243D01*
X200768039Y-72519224D01*
X200768039Y-72519225D01*
X200860151Y-72716762D01*
X200860154Y-72716767D01*
X200862477Y-72721749D01*
X200993802Y-72909300D01*
X201155700Y-73071198D01*
X201160208Y-73074355D01*
X201160211Y-73074357D01*
X201202457Y-73103938D01*
X201343251Y-73202523D01*
X201348233Y-73204846D01*
X201348238Y-73204849D01*
X201382457Y-73220805D01*
X201435742Y-73267722D01*
X201455203Y-73335999D01*
X201434661Y-73403959D01*
X201382457Y-73449195D01*
X201348238Y-73465151D01*
X201348233Y-73465154D01*
X201343251Y-73467477D01*
X201280090Y-73511703D01*
X201160211Y-73595643D01*
X201160208Y-73595645D01*
X201155700Y-73598802D01*
X200993802Y-73760700D01*
X200990645Y-73765208D01*
X200990643Y-73765211D01*
X200954793Y-73816411D01*
X200862477Y-73948251D01*
X200860154Y-73953233D01*
X200860151Y-73953238D01*
X200839894Y-73996680D01*
X200765716Y-74155757D01*
X200764294Y-74161065D01*
X200764293Y-74161067D01*
X200745634Y-74230702D01*
X200706457Y-74376913D01*
X200686502Y-74605000D01*
X200706457Y-74833087D01*
X200765716Y-75054243D01*
X200768039Y-75059224D01*
X200768039Y-75059225D01*
X200860151Y-75256762D01*
X200860154Y-75256767D01*
X200862477Y-75261749D01*
X200935902Y-75366611D01*
X200972981Y-75419564D01*
X200993802Y-75449300D01*
X201155700Y-75611198D01*
X201160208Y-75614355D01*
X201160211Y-75614357D01*
X201202457Y-75643938D01*
X201343251Y-75742523D01*
X201348233Y-75744846D01*
X201348238Y-75744849D01*
X201382457Y-75760805D01*
X201435742Y-75807722D01*
X201455203Y-75875999D01*
X201434661Y-75943959D01*
X201382457Y-75989195D01*
X201348238Y-76005151D01*
X201348233Y-76005154D01*
X201343251Y-76007477D01*
X201279956Y-76051797D01*
X201160211Y-76135643D01*
X201160208Y-76135645D01*
X201155700Y-76138802D01*
X200993802Y-76300700D01*
X200990645Y-76305208D01*
X200990643Y-76305211D01*
X200983299Y-76315700D01*
X200862477Y-76488251D01*
X200860154Y-76493233D01*
X200860151Y-76493238D01*
X200804447Y-76612697D01*
X200765716Y-76695757D01*
X200764294Y-76701065D01*
X200764293Y-76701067D01*
X200761697Y-76710757D01*
X200706457Y-76916913D01*
X200686502Y-77145000D01*
X200706457Y-77373087D01*
X200765716Y-77594243D01*
X200768039Y-77599224D01*
X200768039Y-77599225D01*
X200860151Y-77796762D01*
X200860154Y-77796767D01*
X200862477Y-77801749D01*
X200914488Y-77876028D01*
X200984453Y-77975948D01*
X200993802Y-77989300D01*
X201155700Y-78151198D01*
X201160208Y-78154355D01*
X201160211Y-78154357D01*
X201202457Y-78183938D01*
X201343251Y-78282523D01*
X201348233Y-78284846D01*
X201348238Y-78284849D01*
X201382457Y-78300805D01*
X201435742Y-78347722D01*
X201455203Y-78415999D01*
X201434661Y-78483959D01*
X201382457Y-78529195D01*
X201348238Y-78545151D01*
X201348233Y-78545154D01*
X201343251Y-78547477D01*
X201279956Y-78591797D01*
X201160211Y-78675643D01*
X201160208Y-78675645D01*
X201155700Y-78678802D01*
X200993802Y-78840700D01*
X200990645Y-78845208D01*
X200990643Y-78845211D01*
X200985241Y-78852926D01*
X200862477Y-79028251D01*
X200860154Y-79033233D01*
X200860151Y-79033238D01*
X200768039Y-79230775D01*
X200765716Y-79235757D01*
X200764294Y-79241065D01*
X200764293Y-79241067D01*
X200763005Y-79245875D01*
X200706457Y-79456913D01*
X200686502Y-79685000D01*
X200706457Y-79913087D01*
X200707881Y-79918400D01*
X200707881Y-79918402D01*
X200722487Y-79972910D01*
X200765716Y-80134243D01*
X200768039Y-80139224D01*
X200768039Y-80139225D01*
X200860151Y-80336762D01*
X200860154Y-80336767D01*
X200862477Y-80341749D01*
X200993802Y-80529300D01*
X201155700Y-80691198D01*
X201160208Y-80694355D01*
X201160211Y-80694357D01*
X201202249Y-80723792D01*
X201343251Y-80822523D01*
X201348233Y-80824846D01*
X201348238Y-80824849D01*
X201382457Y-80840805D01*
X201435742Y-80887722D01*
X201455203Y-80955999D01*
X201434661Y-81023959D01*
X201382457Y-81069195D01*
X201348238Y-81085151D01*
X201348233Y-81085154D01*
X201343251Y-81087477D01*
X201279956Y-81131797D01*
X201160211Y-81215643D01*
X201160208Y-81215645D01*
X201155700Y-81218802D01*
X200993802Y-81380700D01*
X200990645Y-81385208D01*
X200990643Y-81385211D01*
X200983299Y-81395700D01*
X200862477Y-81568251D01*
X200860154Y-81573233D01*
X200860151Y-81573238D01*
X200786397Y-81731406D01*
X200765716Y-81775757D01*
X200764294Y-81781065D01*
X200764293Y-81781067D01*
X200707881Y-81991598D01*
X200706457Y-81996913D01*
X200686502Y-82225000D01*
X200706457Y-82453087D01*
X200707881Y-82458400D01*
X200707881Y-82458402D01*
X200740746Y-82581053D01*
X200765716Y-82674243D01*
X200768039Y-82679224D01*
X200768039Y-82679225D01*
X200860151Y-82876762D01*
X200860154Y-82876767D01*
X200862477Y-82881749D01*
X200928216Y-82975634D01*
X200965577Y-83028990D01*
X200993802Y-83069300D01*
X201155700Y-83231198D01*
X201160208Y-83234355D01*
X201160211Y-83234357D01*
X201202457Y-83263938D01*
X201343251Y-83362523D01*
X201348233Y-83364846D01*
X201348238Y-83364849D01*
X201382457Y-83380805D01*
X201435742Y-83427722D01*
X201455203Y-83495999D01*
X201434661Y-83563959D01*
X201382457Y-83609195D01*
X201348238Y-83625151D01*
X201348233Y-83625154D01*
X201343251Y-83627477D01*
X201279956Y-83671797D01*
X201160211Y-83755643D01*
X201160208Y-83755645D01*
X201155700Y-83758802D01*
X200993802Y-83920700D01*
X200990645Y-83925208D01*
X200990643Y-83925211D01*
X200985241Y-83932926D01*
X200862477Y-84108251D01*
X200860154Y-84113233D01*
X200860151Y-84113238D01*
X200778051Y-84289305D01*
X200765716Y-84315757D01*
X200764294Y-84321065D01*
X200764293Y-84321067D01*
X200715123Y-84504570D01*
X200706457Y-84536913D01*
X200686502Y-84765000D01*
X200706457Y-84993087D01*
X200765716Y-85214243D01*
X200768039Y-85219224D01*
X200768039Y-85219225D01*
X200860151Y-85416762D01*
X200860154Y-85416767D01*
X200862477Y-85421749D01*
X200911828Y-85492229D01*
X200962433Y-85564500D01*
X200993802Y-85609300D01*
X201155700Y-85771198D01*
X201160208Y-85774355D01*
X201160211Y-85774357D01*
X201202457Y-85803938D01*
X201343251Y-85902523D01*
X201348233Y-85904846D01*
X201348238Y-85904849D01*
X201382457Y-85920805D01*
X201435742Y-85967722D01*
X201455203Y-86035999D01*
X201434661Y-86103959D01*
X201382457Y-86149195D01*
X201348238Y-86165151D01*
X201348233Y-86165154D01*
X201343251Y-86167477D01*
X201279956Y-86211797D01*
X201160211Y-86295643D01*
X201160208Y-86295645D01*
X201155700Y-86298802D01*
X200993802Y-86460700D01*
X200990645Y-86465208D01*
X200990643Y-86465211D01*
X200983299Y-86475700D01*
X200862477Y-86648251D01*
X200860154Y-86653233D01*
X200860151Y-86653238D01*
X200816531Y-86746783D01*
X200765716Y-86855757D01*
X200764294Y-86861065D01*
X200764293Y-86861067D01*
X200761697Y-86870757D01*
X200706457Y-87076913D01*
X200686502Y-87305000D01*
X200706457Y-87533087D01*
X200707881Y-87538400D01*
X200707881Y-87538402D01*
X200755687Y-87716813D01*
X200765716Y-87754243D01*
X200768039Y-87759224D01*
X200768039Y-87759225D01*
X200860151Y-87956762D01*
X200860154Y-87956767D01*
X200862477Y-87961749D01*
X200928216Y-88055634D01*
X200988940Y-88142356D01*
X200993802Y-88149300D01*
X201155700Y-88311198D01*
X201160208Y-88314355D01*
X201160211Y-88314357D01*
X201202457Y-88343938D01*
X201343251Y-88442523D01*
X201348233Y-88444846D01*
X201348238Y-88444849D01*
X201382457Y-88460805D01*
X201435742Y-88507722D01*
X201455203Y-88575999D01*
X201434661Y-88643959D01*
X201382457Y-88689195D01*
X201348238Y-88705151D01*
X201348233Y-88705154D01*
X201343251Y-88707477D01*
X201279956Y-88751797D01*
X201160211Y-88835643D01*
X201160208Y-88835645D01*
X201155700Y-88838802D01*
X200993802Y-89000700D01*
X200990645Y-89005208D01*
X200990643Y-89005211D01*
X200957815Y-89052095D01*
X200862477Y-89188251D01*
X200860154Y-89193233D01*
X200860151Y-89193238D01*
X200816531Y-89286783D01*
X200765716Y-89395757D01*
X200764294Y-89401065D01*
X200764293Y-89401067D01*
X200716458Y-89579588D01*
X200706457Y-89616913D01*
X200686502Y-89845000D01*
X200706457Y-90073087D01*
X200765716Y-90294243D01*
X200768039Y-90299224D01*
X200768039Y-90299225D01*
X200860151Y-90496762D01*
X200860154Y-90496767D01*
X200862477Y-90501749D01*
X200914488Y-90576028D01*
X200965577Y-90648990D01*
X200993802Y-90689300D01*
X201155700Y-90851198D01*
X201160208Y-90854355D01*
X201160211Y-90854357D01*
X201212810Y-90891187D01*
X201343251Y-90982523D01*
X201348233Y-90984846D01*
X201348238Y-90984849D01*
X201382457Y-91000805D01*
X201435742Y-91047722D01*
X201455203Y-91115999D01*
X201434661Y-91183959D01*
X201382457Y-91229195D01*
X201348238Y-91245151D01*
X201348233Y-91245154D01*
X201343251Y-91247477D01*
X201260616Y-91305339D01*
X201160211Y-91375643D01*
X201160208Y-91375645D01*
X201155700Y-91378802D01*
X200993802Y-91540700D01*
X200990645Y-91545208D01*
X200990643Y-91545211D01*
X200983299Y-91555700D01*
X200862477Y-91728251D01*
X200860154Y-91733233D01*
X200860151Y-91733238D01*
X200855482Y-91743251D01*
X200765716Y-91935757D01*
X200706457Y-92156913D01*
X200686502Y-92385000D01*
X198700000Y-92385000D01*
X198700000Y-64126000D01*
X198720002Y-64057879D01*
X198773658Y-64011386D01*
X198826000Y-64000000D01*
X227874000Y-64000000D01*
X227942121Y-64020002D01*
G37*
%TD.AperFunction*%
%TA.AperFunction,Conductor*%
G36*
X224152026Y-82895144D02*
G01*
X224179875Y-82926994D01*
X224195852Y-82953066D01*
X224239987Y-83025088D01*
X224386250Y-83193938D01*
X224558126Y-83336632D01*
X224606414Y-83364849D01*
X224631445Y-83379476D01*
X224680169Y-83431114D01*
X224693240Y-83500897D01*
X224666509Y-83566669D01*
X224626055Y-83600027D01*
X224613607Y-83606507D01*
X224609474Y-83609610D01*
X224609471Y-83609612D01*
X224447451Y-83731260D01*
X224434965Y-83740635D01*
X224424584Y-83751498D01*
X224320263Y-83860664D01*
X224280629Y-83902138D01*
X224277715Y-83906410D01*
X224277714Y-83906411D01*
X224254657Y-83940211D01*
X224210234Y-84005334D01*
X224172898Y-84060066D01*
X224117987Y-84105069D01*
X224047462Y-84113240D01*
X223983715Y-84081986D01*
X223963018Y-84057502D01*
X223882426Y-83932926D01*
X223876136Y-83924757D01*
X223732806Y-83767240D01*
X223725273Y-83760215D01*
X223558139Y-83628222D01*
X223549556Y-83622520D01*
X223512602Y-83602120D01*
X223462631Y-83551687D01*
X223447859Y-83482245D01*
X223472975Y-83415839D01*
X223500327Y-83389232D01*
X223542198Y-83359366D01*
X223679860Y-83261173D01*
X223691718Y-83249357D01*
X223834435Y-83107137D01*
X223838096Y-83103489D01*
X223849085Y-83088197D01*
X223968453Y-82922077D01*
X223969776Y-82923028D01*
X224016645Y-82879857D01*
X224086580Y-82867625D01*
X224152026Y-82895144D01*
G37*
%TD.AperFunction*%
%TA.AperFunction,Conductor*%
G36*
X224152338Y-80354678D02*
G01*
X224180166Y-80386511D01*
X224237694Y-80480388D01*
X224243777Y-80488699D01*
X224383213Y-80649667D01*
X224390580Y-80656883D01*
X224554434Y-80792916D01*
X224562881Y-80798831D01*
X224631969Y-80839203D01*
X224680693Y-80890842D01*
X224693764Y-80960625D01*
X224667033Y-81026396D01*
X224626584Y-81059752D01*
X224613607Y-81066507D01*
X224609474Y-81069610D01*
X224609471Y-81069612D01*
X224447451Y-81191260D01*
X224434965Y-81200635D01*
X224280629Y-81362138D01*
X224173201Y-81519621D01*
X224118293Y-81564621D01*
X224047768Y-81572792D01*
X223984021Y-81541538D01*
X223963324Y-81517054D01*
X223882822Y-81392617D01*
X223882820Y-81392614D01*
X223880014Y-81388277D01*
X223729670Y-81223051D01*
X223725619Y-81219852D01*
X223725615Y-81219848D01*
X223558414Y-81087800D01*
X223558410Y-81087798D01*
X223554359Y-81084598D01*
X223513053Y-81061796D01*
X223463084Y-81011364D01*
X223448312Y-80941921D01*
X223473428Y-80875516D01*
X223500780Y-80848909D01*
X223544603Y-80817650D01*
X223679860Y-80721173D01*
X223689735Y-80711333D01*
X223834435Y-80567137D01*
X223838096Y-80563489D01*
X223849085Y-80548197D01*
X223968453Y-80382077D01*
X223969640Y-80382930D01*
X224016960Y-80339362D01*
X224086897Y-80327145D01*
X224152338Y-80354678D01*
G37*
%TD.AperFunction*%
%TD*%
M02*
